<?xml version="1.0" standalone="no"?>
<!DOCTYPE svg PUBLIC "-//W3C//DTD SVG 20010904//EN"
 "http://www.w3.org/TR/2001/REC-SVG-20010904/DTD/svg10.dtd">
<svg version="1.0" xmlns="http://www.w3.org/2000/svg"
 width="500.000000pt" height="500.000000pt" viewBox="0 0 500.000000 500.000000"
 preserveAspectRatio="xMidYMid meet">
<metadata>
Created by potrace 1.14, written by Peter Selinger 2001-2017
</metadata>
<g transform="translate(0.000000,500.000000) scale(0.100000,-0.100000)"
fill="#000000" stroke="none">
<path d="M2255 4989 c-99 -10 -119 -13 -223 -34 -45 -9 -87 -13 -92 -10 -6 3
-10 2 -10 -3 0 -6 -17 -13 -37 -17 -52 -9 -269 -79 -328 -104 -11 -5 -38 -17
-60 -26 -339 -145 -662 -386 -907 -675 -127 -150 -125 -147 -149 -190 -13 -22
-26 -40 -31 -40 -4 0 -8 -6 -8 -13 0 -7 -8 -22 -17 -33 -10 -11 -24 -30 -31
-42 -48 -84 -150 -278 -151 -287 0 -3 -8 -22 -16 -42 -8 -20 -23 -59 -33 -87
-9 -28 -20 -52 -24 -54 -5 -2 -8 -11 -8 -20 0 -9 -13 -57 -28 -107 -27 -85
-44 -151 -56 -220 -3 -16 -8 -43 -11 -60 -29 -148 -41 -508 -22 -680 11 -109
18 -158 22 -180 17 -75 22 -105 17 -105 -2 0 1 -6 7 -14 7 -8 13 -34 14 -59 1
-25 5 -44 8 -42 3 2 13 -26 23 -61 9 -36 34 -111 56 -166 22 -56 36 -106 33
-111 -3 -6 -1 -7 5 -3 7 4 12 2 12 -4 0 -16 79 -176 108 -219 12 -19 20 -42
17 -50 -3 -9 -3 -12 1 -8 6 6 74 -83 74 -98 0 -3 5 -11 10 -18 6 -7 39 -50 73
-97 34 -47 66 -90 72 -96 5 -6 39 -43 74 -83 76 -86 152 -160 243 -238 71 -61
173 -137 238 -178 25 -15 47 -31 50 -34 3 -3 14 -11 25 -17 11 -6 45 -24 75
-41 75 -41 188 -98 230 -116 82 -34 95 -39 96 -35 0 1 7 -2 15 -8 8 -6 26 -14
41 -18 15 -3 40 -11 55 -18 34 -14 39 -15 59 -17 8 0 13 -4 11 -9 -3 -4 5 -7
16 -8 12 0 33 -4 47 -7 14 -4 62 -15 107 -25 45 -10 85 -21 88 -24 4 -4 14 -4
23 -1 11 5 13 3 7 -8 -7 -11 -6 -12 7 -2 8 7 17 10 20 7 3 -3 25 -7 49 -10 24
-3 58 -7 74 -10 17 -2 120 -6 230 -8 184 -4 269 0 414 19 58 7 65 8 128 23 23
5 44 8 47 5 2 -3 13 0 24 6 10 5 31 12 46 15 15 3 53 12 84 22 31 9 62 17 67
19 13 3 27 8 155 57 110 42 251 109 333 159 26 15 47 25 47 21 0 -4 4 -2 8 3
9 13 69 55 78 55 3 0 23 14 44 30 21 17 42 30 48 30 6 0 12 4 14 9 7 19 120
101 130 95 6 -4 8 -3 5 3 -3 5 19 33 51 60 51 46 116 110 192 191 40 42 163
201 207 267 101 151 181 297 237 435 15 36 31 74 36 85 12 27 80 243 86 275 3
14 14 66 24 115 38 183 45 266 45 505 -1 204 -12 328 -47 495 -21 105 -85 323
-112 388 -9 21 -14 42 -11 47 3 4 1 10 -3 12 -15 5 -92 180 -85 192 3 6 3 8
-2 4 -4 -4 -29 29 -54 75 -26 45 -61 103 -79 129 -17 26 -32 51 -32 56 0 6 -3
12 -7 14 -5 2 -33 37 -64 78 -31 41 -72 93 -92 115 -19 22 -33 44 -30 50 4 5
3 7 0 4 -4 -3 -55 42 -115 100 -115 115 -173 166 -239 214 -24 17 -43 34 -43
39 0 4 -5 8 -11 8 -9 0 -93 54 -109 70 -17 17 -253 145 -330 179 -73 32 -225
91 -245 95 -5 1 -14 4 -20 8 -9 6 -105 33 -150 43 -11 3 -40 9 -65 15 -61 13
-93 19 -170 31 -36 5 -78 12 -95 15 -51 9 -446 11 -530 3z"/>
</g>
</svg>
